# xmcd CD database file
#
# Track frame offsets:
#	150
#	20367
#	38067
#	49820
#	66695
#	80250
#	100070
#	113950
#	126127
#	139247
#	154730
#	169825
#	191030
#	205162
#	217857
#
# Disc length: 3147 seconds
#
# Revision: 0
# Processed by: cddbd v1.5PL3 Copyright (c) Steve Scherf et al.
# Submitted via: CDex 1.51
#
DISCID=d30c490f
DTITLE=Micke Björklöf and Blue Strip - Swamp Baby
DYEAR=1999
DGENRE=Blues
TTITLE0=Tell Me
TTITLE1=Stone Inside
TTITLE2=Killing Floor
TTITLE3=Suzanne
TTITLE4=36 Cuts
TTITLE5=Wild In The Jungle
TTITLE6=Killer Woman
TTITLE7=All I Can Do
TTITLE8=Keep On Tryin'
TTITLE9=It's Love Baby (24 Hours A Day)
TTITLE10=Try Something Else
TTITLE11=I've Got a Feeling
TTITLE12=Drunk Tonight
TTITLE13=You Don't Love Me
TTITLE14=Stay
EXTD=YEAR: 1999
EXTT0=
EXTT1=
EXTT2=
EXTT3=
EXTT4=
EXTT5=
EXTT6=
EXTT7=
EXTT8=
EXTT9=
EXTT10=
EXTT11=
EXTT12=
EXTT13=
EXTT14=
PLAYORDER=
